<svg height="41" viewBox="0 0 36 41" width="36" xmlns="http://www.w3.org/2000/svg"><g fill="none" fill-rule="evenodd"><path d="m-10-8h56v56h-56z" fill="#161a2e" opacity="0"/><g fill="#fff" transform=""><path d="m27.71 23.618-1.759-.952.952-1.759-1.758-.952-.953 1.76-4.208-2.277 4.055-2.541 1.063 1.696 1.694-1.062-1.062-1.695 1.696-1.062-1.062-1.695-1.695 1.062-1.062-1.695-1.695 1.062 1.062 1.694-3.978 2.492v-4.694h2v-2h-2v-2h-2v2h-2v2h2v4.822l-4.24-2.295.951-1.759-1.759-.952-.952 1.759-1.759-.952-.951 1.759 1.759.952-.952 1.759 1.758.952.953-1.759 4.208 2.277-4.055 2.54-1.063-1.695-1.694 1.062 1.062 1.694-1.696 1.062 1.062 1.695 1.695-1.062 1.062 1.696 1.695-1.062-1.062-1.695 3.978-2.491v4.693h-2v2h2v2h2v-2h2v-2h-2v-4.821l4.24 2.295-.951 1.758 1.759.953.952-1.76 1.759.952z"/><path d="m27 7c-.202 0-.4.016-.6.03-1.434-4.091-5.319-7.03-9.9-7.03-5.799 0-10.5 4.701-10.5 10.5 0 .198.019.391.029.586-2.851.465-5.029 2.932-5.029 5.914 0 3.226 2.548 5.85 5.74 5.987.394-.312.511-.868.238-1.304h-.001c-.293-.468-.151-1.085.317-1.378l.782-.49-.812-.439c-.485-.263-.666-.87-.403-1.355l.001-.001c.263-.485.082-1.092-.403-1.354s-.666-.869-.403-1.354l.476-.88.951-1.759.476-.88c.263-.486.869-.667 1.355-.404l.88.477.477-.88c.263-.485.869-.666 1.354-.403l.88.477.096.052v-.112-1c0-.553.447-1 1-1 .553 0 1-.447 1-1 0-.553.447-1 1-1h1 2 1c.553 0 1 .447 1 1 0 .553.447 1 1 1 .553 0 1 .447 1 1v.469l.398-.249c.468-.293 1.084-.151 1.377.316l.531.849v-.001l.848-.53c.469-.293 1.085-.151 1.378.316l.531.848 1.062 1.695.531.848c.293.468.15 1.085-.317 1.378-.468.293-.61.91-.317 1.378l.001.001c.293.468.151 1.084-.317 1.378l-.782.489.812.44c.485.263.666.869.403 1.354l-.001.001c-.263.485-.082 1.092.403 1.354.082.045.141.11.205.171 3.063-1.121 5.254-4.054 5.254-7.506-.001-4.417-3.583-7.999-8.001-7.999z" opacity=".8"/><path d="m4.366 32.098-1.732-1 1-1.732-1.732-1 1-1.732 1.732 1 1-1.732 1.732 1-1 1.732 1.732 1-1 1.732-1.732-1zm-1 8-1.732-1 1-1.732-1.732-1 1-1.732 1.732 1 1-1.732 1.732 1-1 1.732 1.732 1-1 1.732-1.732-1zm9-1-1.732-1 1-1.732-1.732-1 1-1.732 1.732 1 1-1.732 1.732 1-1 1.732 1.732 1-1 1.732-1.732-1zm9-2-1.732-1 1-1.732-1.732-1 1-1.732 1.732 1 1-1.732 1.732 1-1 1.732 1.732 1-1 1.732-1.732-1zm9 2-1.732-1 1-1.732-1.732-1 1-1.732 1.732 1 1-1.732 1.732 1-1 1.732 1.732 1-1 1.732-1.732-1zm1-8-1.732-1 1-1.732-1.732-1 1-1.732 1.732 1 1-1.732 1.732 1-1 1.732 1.732 1-1 1.732-1.732-1z"/></g></g></svg>