<?xml version="1.0" encoding="UTF-8"?>
<svg width="36px" height="41px" viewBox="0 0 36 41" version="1.1" xmlns="http://www.w3.org/2000/svg" xmlns:xlink="http://www.w3.org/1999/xlink">
    <!-- Generator: Sketch 43.2 (39069) - http://www.bohemiancoding.com/sketch -->
    <title>Blizzard Night Icon Group</title>
    <desc>Created with Sketch.</desc>
    <defs></defs>
    <g id="iOS-9.3-UI-Kit" stroke="none" stroke-width="1" fill="none" fill-rule="evenodd">
        <g id="Weather-Icons" transform="translate(-50.000000, -42.000000)">
            <g id="Blizzard-Night-Icon-Group" transform="translate(40.000000, 34.000000)">
                <rect id="Weather-Icon-Frame" fill="#161A2E" opacity="0" x="0" y="0" width="56" height="56"></rect>
                <g id="Blizzard-Night-Icon" transform="translate(10.000000, 8.000000)" fill="#FFFFFF">
                    <polygon id="Shape" points="27.71 23.618 25.951 22.666 26.903 20.907 25.145 19.955 24.192 21.714 19.984 19.437 24.039 16.897 25.102 18.592 26.796 17.53 25.734 15.836 27.43 14.774 26.368 13.079 24.673 14.141 23.611 12.445 21.916 13.507 22.978 15.202 19 17.693 19 13 21 13 21 11 19 11 19 9 17 9 17 11 15 11 15 13 17 13 17 17.821 12.76 15.526 13.711 13.768 11.952 12.815 11 14.575 9.241 13.623 8.29 15.382 10.049 16.334 9.097 18.093 10.855 19.045 11.808 17.285 16.016 19.562 11.961 22.103 10.898 20.407 9.204 21.469 10.266 23.164 8.57 24.226 9.632 25.921 11.327 24.859 12.389 26.554 14.084 25.492 13.022 23.798 17 21.306 17 26 15 26 15 28 17 28 17 30 19 30 19 28 21 28 21 26 19 26 19 21.178 23.24 23.473 22.289 25.232 24.048 26.184 25 24.425 26.759 25.377"></polygon>
                    <path d="M27,7 C26.798,7 26.6,7.016 26.4,7.03 C24.966,2.938 21.081,0 16.5,0 C10.701,0 6,4.701 6,10.5 C6,10.697 6.019,10.891 6.029,11.085 C3.178,11.55 1,14.018 1,17 C1,20.226 3.548,22.85 6.74,22.986 C7.134,22.674 7.251,22.119 6.978,21.683 L6.977,21.682 C6.684,21.214 6.826,20.598 7.294,20.304 L8.076,19.815 L7.264,19.375 C6.779,19.112 6.598,18.506 6.861,18.021 L6.862,18.02 C7.125,17.535 6.944,16.928 6.459,16.666 C5.974,16.402 5.793,15.796 6.056,15.311 L6.532,14.432 L7.483,12.673 L7.959,11.793 C8.222,11.307 8.828,11.126 9.314,11.389 L10.194,11.866 L10.194,11.865 L10.671,10.986 C10.934,10.5 11.54,10.32 12.025,10.583 L12.905,11.059 L13.001,11.111 L13.001,11 L13.001,9.999 C13.001,9.447 13.448,9 14.001,9 L14.001,9 C14.554,9 15.001,8.553 15.001,8 L15.001,7.999 C15.001,7.447 15.448,7 16.001,7 L17.001,7 L19.001,7 L20.001,7 C20.554,7 21.001,7.447 21.001,7.999 L21.001,8 C21.001,8.553 21.448,9 22.001,9 L22.001,9 C22.554,9 23.001,9.447 23.001,9.999 L23.001,10.469 L23.399,10.22 C23.867,9.927 24.483,10.069 24.776,10.536 L25.307,11.384 L25.307,11.384 L26.155,10.853 C26.624,10.56 27.24,10.703 27.533,11.17 L28.064,12.018 L29.126,13.713 L29.657,14.561 C29.95,15.029 29.807,15.646 29.34,15.939 L29.34,15.939 C28.872,16.232 28.73,16.849 29.023,17.317 L29.024,17.317 C29.317,17.785 29.175,18.402 28.707,18.695 L27.925,19.185 L28.737,19.624 C29.222,19.887 29.403,20.494 29.14,20.979 L29.139,20.98 C28.876,21.465 29.057,22.072 29.542,22.334 C29.624,22.378 29.683,22.443 29.747,22.505 C32.81,21.384 35.001,18.451 35.001,14.999 C35,10.582 31.418,7 27,7 L27,7 Z" id="Shape" opacity="0.5"></path>
                    <path d="M4.366,32.098 L2.634,31.098 L3.634,29.366 L1.902,28.366 L2.902,26.634 L4.634,27.634 L5.634,25.902 L7.366,26.902 L6.366,28.634 L8.098,29.634 L7.098,31.366 L5.366,30.366 L4.366,32.098 Z M3.366,40.098 L1.634,39.098 L2.634,37.366 L0.902,36.366 L1.902,34.634 L3.634,35.634 L4.634,33.902 L6.366,34.902 L5.366,36.634 L7.098,37.634 L6.098,39.366 L4.366,38.366 L3.366,40.098 Z M12.366,39.098 L10.634,38.098 L11.634,36.366 L9.902,35.366 L10.902,33.634 L12.634,34.634 L13.634,32.902 L15.366,33.902 L14.366,35.634 L16.098,36.634 L15.098,38.366 L13.366,37.366 L12.366,39.098 Z M21.366,37.098 L19.634,36.098 L20.634,34.366 L18.902,33.366 L19.902,31.634 L21.634,32.634 L22.634,30.902 L24.366,31.902 L23.366,33.634 L25.098,34.634 L24.098,36.366 L22.366,35.366 L21.366,37.098 Z M30.366,39.098 L28.634,38.098 L29.634,36.366 L27.902,35.366 L28.902,33.634 L30.634,34.634 L31.634,32.902 L33.366,33.902 L32.366,35.634 L34.098,36.634 L33.098,38.366 L31.366,37.366 L30.366,39.098 Z M31.366,31.098 L29.634,30.098 L30.634,28.366 L28.902,27.366 L29.902,25.634 L31.634,26.634 L32.634,24.902 L34.366,25.902 L33.366,27.634 L35.098,28.634 L34.098,30.366 L32.366,29.366 L31.366,31.098 Z" id="Shape"></path>
                </g>
            </g>
        </g>
    </g>
</svg>