<?xml version="1.0" encoding="UTF-8"?>
<svg width="33px" height="36px" viewBox="0 0 33 36" version="1.1" xmlns="http://www.w3.org/2000/svg" xmlns:xlink="http://www.w3.org/1999/xlink">
    <!-- Generator: Sketch 43.2 (39069) - http://www.bohemiancoding.com/sketch -->
    <title>Drizzle Night Icon Group</title>
    <desc>Created with Sketch.</desc>
    <defs></defs>
    <g id="iOS-9.3-UI-Kit" stroke="none" stroke-width="1" fill="none" fill-rule="evenodd">
        <g id="Weather-Icons" transform="translate(-51.000000, -509.000000)">
            <g id="Drizzle-Night-Icon-Group" transform="translate(40.000000, 499.000000)">
                <rect id="Weather-Icon-Frame" fill="#161A2E" opacity="0" x="0" y="0" width="56" height="56"></rect>
                <g id="Drizzle-Night-Icon" transform="translate(11.000000, 10.000000)">
                    <path d="M25,7 C24.7,7 24.405,7.02 24.113,7.052 C22.942,2.981 19.197,0 14.75,0 C9.365,0 5,4.365 5,9.75 C5,10.2 5.041,10.641 5.101,11.074 C2.215,11.51 0,13.993 0,17 C0,20.313 2.687,23 6,23 L25,23 C29.418,23 33,19.418 33,15 C33,10.582 29.418,7 25,7 L25,7 Z" id="Shape" fill="#FFFFFF" opacity="0.5"></path>
                    <path d="M2.2285317,27.6035507 L3.8134317,24.6237632 L5.3585067,25.4455632 L3.7736067,28.4253507 L2.2285317,27.6035507 Z M11.6073699,33.7742709 L13.1919324,30.7944834 L14.7370074,31.6161084 L13.1524449,34.5958959 L11.6073699,33.7742709 Z M10.5939027,27.4817796 L12.1788027,24.5019921 L13.7238777,25.3237921 L12.1389777,28.3035796 L10.5939027,27.4817796 Z M25.4670624,34.5240615 L27.0519624,31.544274 L28.5970374,32.366074 L27.0121374,35.3458615 L25.4670624,34.5240615 Z M17.4835377,29.5781895 L19.0681002,26.598402 L20.6131752,27.420027 L19.0286127,30.3998145 L17.4835377,29.5781895 Z M23.5511262,28.7025398 L25.1356887,25.7227523 L26.6807637,26.5443773 L25.0962012,29.5241648 L23.5511262,28.7025398 Z M7.1829876,33.0242438 L8.7668751,30.0437813 L10.3123001,30.8650563 L8.7284126,33.8455188 L7.1829876,33.0242438 Z" id="Rectangle-path" fill="#5AC8FA"></path>
                </g>
            </g>
        </g>
    </g>
</svg>