<?xml version="1.0" encoding="UTF-8"?>
<svg width="33px" height="38px" viewBox="0 0 33 38" version="1.1" xmlns="http://www.w3.org/2000/svg" xmlns:xlink="http://www.w3.org/1999/xlink">
    <!-- Generator: Sketch 43.2 (39069) - http://www.bohemiancoding.com/sketch -->
    <title>Hail Night Icon Group</title>
    <desc>Created with Sketch.</desc>
    <defs></defs>
    <g id="iOS-9.3-UI-Kit" stroke="none" stroke-width="1" fill="none" fill-rule="evenodd">
        <g id="Weather-Icons" transform="translate(-51.000000, -1066.000000)">
            <g id="Hail-Night-Icon-Group" transform="translate(40.000000, 1057.000000)">
                <rect id="Weather-Icon-Frame" fill="#161A2E" opacity="0" x="0" y="0" width="56" height="56"></rect>
                <g id="Hail-Night-Icon" transform="translate(11.000000, 9.000000)" fill="#FFFFFF">
                    <path d="M2,35 C0.8954305,35 0,34.1045695 0,33 C0,31.8954305 0.8954305,31 2,31 C3.1045695,31 4,31.8954305 4,33 C4,34.1045695 3.1045695,35 2,35 Z M25,36 C23.8954305,36 23,35.1045695 23,34 C23,32.8954305 23.8954305,32 25,32 C26.1045695,32 27,32.8954305 27,34 C27,35.1045695 26.1045695,36 25,36 Z M16.5,38 C15.1192881,38 14,36.8807119 14,35.5 C14,34.1192881 15.1192881,33 16.5,33 C17.8807119,33 19,34.1192881 19,35.5 C19,36.8807119 17.8807119,38 16.5,38 Z M9.5,33 C8.67157288,33 8,32.3284271 8,31.5 C8,30.6715729 8.67157288,30 9.5,30 C10.3284271,30 11,30.6715729 11,31.5 C11,32.3284271 10.3284271,33 9.5,33 Z M5.7131178,25.9043672 L7.2002678,26.8269672 L4.5642678,31.0759672 L3.0771178,30.1533672 L5.7131178,25.9043672 Z M12.1960124,26.5637816 L13.6831624,27.4863816 L12.0356624,30.1420066 L10.5485124,29.2194066 L12.1960124,26.5637816 Z M21.4733978,25.7636844 L22.9605478,26.6862844 L18.9406478,33.1660094 L17.4534978,32.2434094 L21.4733978,25.7636844 Z M28.3364894,27.6755144 L29.8236394,28.5981144 L27.4512394,32.4222144 L25.9640894,31.4996144 L28.3364894,27.6755144 Z" id="Oval" opacity="0.8"></path>
                    <path d="M25,7 C24.7,7 24.405,7.02 24.113,7.052 C22.942,2.981 19.197,0 14.75,0 C9.365,0 5,4.365 5,9.75 C5,10.2 5.041,10.641 5.101,11.074 C2.215,11.51 0,13.993 0,17 C0,20.313 2.687,23 6,23 L25,23 C29.418,23 33,19.418 33,15 C33,10.582 29.418,7 25,7 L25,7 Z" id="Shape" opacity="0.5"></path>
                </g>
            </g>
        </g>
    </g>
</svg>