<?xml version="1.0" encoding="UTF-8"?>
<svg width="33px" height="36px" viewBox="0 0 33 36" version="1.1" xmlns="http://www.w3.org/2000/svg" xmlns:xlink="http://www.w3.org/1999/xlink">
    <!-- Generator: Sketch 43.2 (39069) - http://www.bohemiancoding.com/sketch -->
    <title>Rain Night Icon Group</title>
    <desc>Created with Sketch.</desc>
    <defs></defs>
    <g id="iOS-9.3-UI-Kit" stroke="none" stroke-width="1" fill="none" fill-rule="evenodd">
        <g id="Weather-Icons" transform="translate(-691.000000, -1253.000000)">
            <g id="Rain-Night-Icon-Group" transform="translate(680.000000, 1243.000000)">
                <rect id="Weather-Icon-Frame" fill="#161A2E" opacity="0" x="0" y="0" width="56" height="56"></rect>
                <g id="Rain-Night-Icon" transform="translate(11.000000, 10.000000)">
                    <path d="M25,7 C24.7,7 24.405,7.02 24.113,7.052 C22.942,2.981 19.197,0 14.75,0 C9.365,0 5,4.365 5,9.75 C5,10.2 5.041,10.641 5.101,11.074 C2.215,11.51 0,13.993 0,17 C0,20.313 2.687,23 6,23 L25,23 C29.418,23 33,19.418 33,15 C33,10.582 29.418,7 25,7 L25,7 Z" id="Shape" fill="#FFFFFF" opacity="0.5"></path>
                    <path d="M1.667967,31.0791726 L5.709092,25.5172976 L7.124033,26.5453598 L3.082908,32.1072348 L1.667967,31.0791726 Z M14.1696117,31.7291069 L18.8728117,25.2571069 L20.2885617,26.2859319 L15.5853617,32.7579319 L14.1696117,31.7291069 Z M18.4743862,33.715845 L24.6462862,25.221345 L26.0620362,26.249995 L19.8901362,34.744495 L18.4743862,33.715845 Z M6.7559359,34.3471433 L11.6069359,27.6737183 L13.0225109,28.7027183 L8.1715109,35.3761433 L6.7559359,34.3471433 Z M27.2085888,32.6211984 L28.9722888,30.1941984 L30.3880388,31.2230234 L28.6243388,33.6500234 L27.2085888,32.6211984 Z" id="Rectangle-path" fill="#5AC8FA"></path>
                </g>
            </g>
        </g>
    </g>
</svg>